<!-- Exported by Character Map UWP -->
<svg height="100%" viewBox="64 64 896 896" width="100%" xmlns="http://www.w3.org/2000/svg" xmlns:xlink="http://www.w3.org/1999/xlink">
  <path d="M772,64C797,64.0001 820.917,69.0834 843.75,79.25C866.583,89.4167 886.583,103.083 903.75,120.25C920.917,137.417 934.583,157.417 944.75,180.25C954.917,203.083 960,227 960,252L960,772C960,797 954.917,820.917 944.75,843.75C934.583,866.583 920.917,886.583 903.75,903.75C886.583,920.917 866.583,934.583 843.75,944.75C820.917,954.917 797,960 772,960L252,960C227,960 203.083,954.917 180.25,944.75C157.417,934.583 137.417,920.917 120.25,903.75C103.083,886.583 89.4167,866.583 79.25,843.75C69.0833,820.917 64,797 64,772L64,252C64,227 69.0833,203.083 79.25,180.25C89.4167,157.417 103.083,137.417 120.25,120.25C137.417,103.083 157.417,89.4167 180.25,79.25C203.083,69.0834 227,64.0001 252,64ZM253.5,128C236.833,128 220.917,131.417 205.75,138.25C190.583,145.083 177.25,154.25 165.75,165.75C154.25,177.25 145.083,190.5 138.25,205.5C131.417,220.5 128,236.333 128,253L128,255.5L896,255.5L896,253C896,236.333 892.583,220.5 885.75,205.5C878.917,190.5 869.75,177.25 858.25,165.75C846.75,154.25 833.417,145.083 818.25,138.25C803.083,131.417 787.167,128 770.5,128ZM770.5,896C787.167,896 803.083,892.583 818.25,885.75C833.417,878.917 846.75,869.75 858.25,858.25C869.75,846.75 878.917,833.417 885.75,818.25C892.583,803.083 896,787.167 896,770.5L896,320.5L128,320.5L128,770.5C128,787.167 131.417,803.083 138.25,818.25C145.083,833.417 154.25,846.75 165.75,858.25C177.25,869.75 190.583,878.917 205.75,885.75C220.917,892.583 236.833,896 253.5,896ZM832,736C832,744.667 828.833,752.167 822.5,758.5C816.167,764.833 808.667,768 800,768C794.333,768 788.833,766.417 783.5,763.25C778.167,760.083 774.167,755.833 771.5,750.5L643.5,494.5C641.167,489.833 640,485 640,480C640,471.333 643.167,463.833 649.5,457.5C655.833,451.167 663.333,448 672,448C677.667,448 683.167,449.583 688.5,452.75C693.833,455.917 697.833,460.167 700.5,465.5L828.5,721.5C830.833,726.167 832,731 832,736ZM252,598C252,610.333 252.583,623 253.75,636C254.917,649 257.917,660.917 262.75,671.75C267.583,682.583 274.583,691.417 283.75,698.25C292.917,705.083 305.5,708.5 321.5,708.5C330.833,708.5 338.417,707.25 344.25,704.75C350.083,702.25 355,699.167 359,695.5C363,691.833 366.417,687.75 369.25,683.25C372.083,678.75 374.917,674.667 377.75,671C380.583,667.333 383.833,664.25 387.5,661.75C391.167,659.25 396,658 402,658C410.333,658 417.333,660.917 423,666.75C428.667,672.583 431.5,679.667 431.5,688C431.5,692 430.667,696.167 429,700.5C419.333,722.833 404.833,739.667 385.5,751C366.167,762.333 344.5,768 320.5,768C293.833,768 270.417,761.167 250.25,747.5C230.083,733.833 215.167,714.667 205.5,690C198.833,673.333 194.917,657 193.75,641C192.583,625 192,608.333 192,591C192,580.667 193.25,569.917 195.75,558.75C198.25,547.583 201.333,537.167 205,527.5C214,502.833 227.667,483.417 246,469.25C264.333,455.083 286.833,448 313.5,448C342.833,448 367.417,454.5 387.25,467.5C407.083,480.5 421.333,501.333 430,530C431,533 431.5,536.333 431.5,540C431.5,548 428.667,555 423,561C417.333,567 410.333,570 402,570C393.333,570 386.833,567.667 382.5,563C378.167,558.333 374.5,552.833 371.5,546.5C368.5,540.167 365.25,533.75 361.75,527.25C358.25,520.75 353.167,515.833 346.5,512.5C342.167,510.5 337.5,509.25 332.5,508.75C327.5,508.25 322.5,508 317.5,508L312,508C300.667,508 291.167,510.917 283.5,516.75C275.833,522.583 269.667,530 265,539C260.333,548 257,557.75 255,568.25C253,578.75 252,588.667 252,598ZM576,544C576,552.667 572.833,560.167 566.5,566.5C560.167,572.833 552.667,576 544,576C535.333,576 527.833,572.833 521.5,566.5C515.167,560.167 512,552.667 512,544C512,535.333 515.167,527.833 521.5,521.5C527.833,515.167 535.333,512 544,512C552.667,512 560.167,515.167 566.5,521.5C572.833,527.833 576,535.333 576,544ZM576,672C576,680.667 572.833,688.167 566.5,694.5C560.167,700.833 552.667,704 544,704C535.333,704 527.833,700.833 521.5,694.5C515.167,688.167 512,680.667 512,672C512,663.333 515.167,655.833 521.5,649.5C527.833,643.167 535.333,640 544,640C552.667,640 560.167,643.167 566.5,649.5C572.833,655.833 576,663.333 576,672Z" fill="#000000" fill-opacity="1">
  </path>
</svg>